<svg xmlns="http://www.w3.org/2000/svg" viewBox="0 0 128 128" role="img" aria-labelledby="title">
  <title id="title">Kinetix</title>
  <defs>
    <linearGradient id="green" x1="18" y1="102" x2="98" y2="20" gradientUnits="userSpaceOnUse">
      <stop stop-color="#04a96d"/><stop offset=".5" stop-color="#2ed99a"/><stop offset="1" stop-color="#a8f5a7"/>
    </linearGradient>
    <linearGradient id="gold" x1="25" y1="98" x2="88" y2="42" gradientUnits="userSpaceOnUse">
      <stop stop-color="#b69c55"/><stop offset="1" stop-color="#e5e7a0"/>
    </linearGradient>
  </defs>
  <path fill="url(#green)" d="m76 16 8 2 2 11 9 4 9-7 9 8-5 10 5 9 12-1 3 11-10 6v10l10 6-4 11-12-1-6 8 5 11-9 7-9-7-10 3-2 12H69l-3-11-10-2-8 8-10-6 3-12-7-7-11 3-5-11 9-7-1-10-11-5 2-12 12-1 5-9-7-10 8-8 10 6 9-5 1-11 12-2 5 10h5z"/>
  <circle cx="73" cy="72" r="41" fill="#182229" stroke="url(#green)" stroke-width="7"/>
  <path fill="url(#gold)" d="m72 42 4 12 9-9-2 13 13-5-9 10 14 1-13 6 12 7-14-2 8 11-12-6 2 13-8-10-4 13-2-14-11 9 6-12-14 3 12-8-13-4 14-3-10-9 13 5-4-13 10 9z"/>
  <circle cx="73" cy="74" r="14" fill="#263139"/>
  <path fill="url(#green)" stroke="#182229" stroke-width="2.2" stroke-linejoin="round" d="M26 77c4 28 27 38 48 31 20-7 30-28 29-43-6 15-15 22-26 25-3-6-1-15 5-22-17 5-28 14-34 27-10-5-17-12-22-18z"/>
  <path fill="url(#green)" stroke="#182229" stroke-width="2.2" stroke-linejoin="round" d="M49 85c-8-12-5-29 6-42 9-11 16-18 18-34 10 20 2 33-7 45-8 10-13 19-17 31z"/>
  <path fill="#53e2b0" stroke="#182229" stroke-width="2" d="M63 72c-8-15-4-29 8-45-4 18-3 30-8 45z"/>
</svg>
